<svg width="317" height="320" viewBox="0 0 317 320" fill="none" xmlns="http://www.w3.org/2000/svg">
<path d="M228.467 17.3008L229.145 17.6686L229.148 17.6703L229.157 17.6755L229.195 17.6959L229.342 17.7758L229.9 18.0787L231.885 19.1571C232.417 19.4463 233.009 19.7698 233.636 20.1132C233.977 20.2994 234.328 20.4914 234.686 20.6869L234.691 20.6896C235.201 20.9729 235.728 21.2652 236.265 21.5571L236.282 21.5662L236.298 21.5761L237.093 22.0621L237.888 22.5482L237.892 22.5509C238.588 22.9829 239.295 23.4136 239.986 23.8347C241.375 24.6806 242.701 25.4883 243.745 26.191L243.748 26.1929C244.524 26.72 245.17 27.1609 245.621 27.4702C245.847 27.6248 246.025 27.7465 246.146 27.8297L246.284 27.9246L246.32 27.949L246.329 27.9552L246.331 27.9568L246.332 27.9573M246.332 27.9573L245.91 28.5855M246.332 27.9573L246.951 28.3833L246.531 29.011L236.041 44.7167L235.62 45.3479L234.998 44.9188M234.998 44.9188L235.42 44.2912M234.998 44.9188L234.997 44.9184L234.995 44.917L234.987 44.9116L234.956 44.8902L234.835 44.8064L234.374 44.4891C233.977 44.2163 233.411 43.8273 232.733 43.3626C231.902 42.8039 230.884 42.1864 229.786 41.5195C229.086 41.0948 228.354 40.6501 227.616 40.188C227.325 40.0064 227.039 39.8313 226.751 39.6555C226.582 39.5522 226.412 39.4485 226.241 39.3432M219.963 35.9264L219.964 35.9268L219.966 35.928L219.974 35.9326L220.007 35.9507L220.136 36.0213L220.625 36.2889C221.046 36.5195 221.649 36.8488 222.375 37.2439L222.377 37.2449C223.106 37.6395 223.945 38.0948 224.854 38.5905L224.857 38.5919C225.017 38.6781 225.184 38.7697 225.356 38.8637C225.644 39.0214 225.944 39.186 226.241 39.3432M226.241 39.3432C226.249 39.347 226.256 39.3509 226.264 39.3549M226.241 39.3432C226.234 39.3388 226.227 39.3343 226.22 39.33M220.801 36.0181H220.34H220.32" stroke="#A7B4CC" stroke-width="2"/>
<path d="M238.925 47.7061C239.308 47.9978 239.85 48.4114 240.498 48.9067C240.714 49.0721 240.941 49.2447 241.177 49.424C242.387 50.3433 243.83 51.4394 245.198 52.6414L245.206 52.648C245.695 53.0659 246.182 53.4738 246.654 53.8699C247.83 54.8551 248.919 55.7673 249.734 56.5788L249.743 56.588L249.753 56.5968C250.356 57.1576 250.858 57.6275 251.208 57.9569C251.383 58.1216 251.521 58.2512 251.614 58.3396L251.721 58.4404L251.748 58.4662L251.755 58.4726L251.756 58.4742L251.757 58.4746L252.304 58.9943L252.817 58.44L265.617 44.6076L266.137 44.0462L265.575 43.5275M265.575 43.5275L265.07 44.0883M265.575 43.5275L265.573 43.525L265.565 43.5177L265.534 43.4888L265.411 43.3752C265.304 43.2756 265.146 43.1294 264.946 42.9431C264.547 42.5714 263.977 42.04 263.296 41.4005C262.291 40.4143 260.948 39.2856 259.56 38.1192C259.064 37.7021 258.562 37.2801 258.067 36.8581C256.369 35.3671 254.567 33.9995 253.146 32.9217C252.975 32.7918 252.81 32.6661 252.65 32.5449C251.905 31.9777 251.283 31.5042 250.846 31.1725L250.339 30.7873L250.206 30.6857L250.171 30.6597L250.163 30.653L250.16 30.6514M250.16 30.6514L249.71 31.2584M250.16 30.6514L249.548 30.1865L249.101 30.8143M238.01 46.6299V46.64" stroke="#A7B4CC" stroke-width="2"/>
<path d="M253.396 60.0067L254.656 61.2997M254.656 61.2997L255.19 60.7662M254.656 61.2997L254.657 61.3003L254.658 61.3019L254.665 61.3088L254.691 61.3359L254.794 61.4414L255.184 61.8423C255.52 62.1872 255.999 62.6798 256.573 63.2709C256.769 63.4762 256.97 63.6805 257.176 63.8889C257.603 64.3221 258.048 64.7732 258.498 65.289C259.066 65.9401 259.668 66.6266 260.27 67.3119C260.389 67.4479 260.509 67.5838 260.628 67.7194C260.925 68.0623 261.22 68.3963 261.509 68.7246C261.933 69.2058 262.346 69.6748 262.743 70.1418C263.05 70.5309 263.345 70.9019 263.625 71.2538C263.934 71.6418 264.225 72.0068 264.493 72.3479L264.496 72.3507C265.011 72.9993 265.441 73.539 265.743 73.9166C265.894 74.1055 266.012 74.2537 266.093 74.3549L266.186 74.4703L266.21 74.5L266.216 74.5076L266.217 74.5094L266.218 74.51M266.218 74.51L266.8 74.0315M266.218 74.51L266.68 75.087L267.26 74.6314L282.05 63.0066L282.652 62.5329L282.174 61.9307M282.174 61.9307L281.59 62.4066M282.174 61.9307L282.172 61.9278L282.165 61.9193L282.139 61.8857L282.034 61.7544L281.639 61.2553C281.297 60.825 280.81 60.21 280.225 59.471L280.223 59.4686C280.14 59.3647 280.056 59.2586 279.969 59.1504C279.441 58.4888 278.852 57.7503 278.225 56.9594L278.218 56.9503L278.21 56.9415C277.713 56.3521 277.177 55.7438 276.641 55.1354C276.353 54.8085 276.065 54.4818 275.782 54.1578L275.779 54.1544C275.426 53.7534 275.072 53.3494 274.721 52.9495C274.254 52.4167 273.793 51.8911 273.348 51.3887C272.865 50.8424 272.348 50.3117 271.885 49.8362C271.606 49.55 271.347 49.2837 271.126 49.0461L271.12 49.0398L271.114 49.0337C270.46 48.3608 269.915 47.7991 269.534 47.4058C269.344 47.2091 269.194 47.0545 269.092 46.9492L268.976 46.8289L268.946 46.798L268.939 46.7903L268.937 46.7883L268.936 46.7879L268.404 46.2368" stroke="#A7B4CC" stroke-width="2"/>
<path d="M268.5 77.478L268.624 77.7908L268.625 77.7914L268.626 77.7933L268.631 77.8011L268.654 77.8318L268.74 77.952C268.816 78.0573 268.927 78.2117 269.068 78.4083C269.35 78.8014 269.752 79.3628 270.232 80.0354C270.809 80.8452 271.445 81.8387 272.134 82.9155C272.583 83.6167 273.054 84.3533 273.547 85.0971L273.552 85.1051C274.126 85.9484 274.64 86.8391 275.141 87.7077C275.164 87.7492 275.188 87.7906 275.212 87.8319C275.438 88.2234 275.655 88.5968 275.863 88.9524C276.138 89.4261 276.396 89.8682 276.63 90.2791C276.89 90.7342 277.138 91.1563 277.343 91.5037C277.455 91.6934 277.553 91.8609 277.634 91.9994C277.74 92.2041 277.824 92.3678 277.882 92.4811L277.951 92.6141L277.968 92.6483L277.973 92.657L277.974 92.6592L278.329 93.3493L279.001 92.9749L295.411 83.8411L296.061 83.4792L295.711 82.8169L295.71 82.8163" stroke="#A7B4CC" stroke-width="2"/>
<path d="M279.931 96.4019C279.942 96.4227 279.955 96.447 279.969 96.4745C280.028 96.587 280.114 96.7538 280.222 96.9685L280.227 96.978L280.232 96.9874C280.456 97.4008 280.765 97.9979 281.084 98.7309L281.083 98.731L281.089 98.7424C281.333 99.2805 281.607 99.8712 281.897 100.499C282.436 101.662 283.034 102.95 283.61 104.263L283.651 104.364C284.463 106.375 285.271 108.376 285.879 109.885C286.152 110.663 286.38 111.31 286.54 111.765L286.728 112.296L286.777 112.435L286.79 112.472L286.793 112.481L286.794 112.483M286.794 112.483L287.5 112.227M286.794 112.483L287.048 113.2L287.755 112.942L305.365 106.501L306.069 106.243" stroke="#A7B4CC" stroke-width="2"/>
<path d="M288.35 115.568L288.031 115.891L288.162 116.327H288.163V116.33L288.166 116.339L288.177 116.375L288.22 116.517C288.257 116.642 288.311 116.824 288.381 117.056C288.519 117.52 288.716 118.181 288.951 118.974C289.078 119.418 289.222 119.893 289.372 120.391C289.777 121.731 290.233 123.242 290.578 124.798M291.962 130.705L291.964 130.714M292.495 133.39L292.502 133.429L292.504 133.438L292.505 133.441L292.653 134.177L293.382 134.035L311.772 130.451L312.517 130.306L312.365 129.553L312.364 129.552" stroke="#A7B4CC" stroke-width="2"/>
<path d="M293.32 138.217C293.284 137.977 293.256 137.787 293.237 137.659L293.215 137.512L293.21 137.475L293.209 137.465L293.208 137.462V137.461L293.2 137.407V137.35V137.34V136.694M293.62 140.219L293.622 140.229M294.771 152.282L294.88 154.283L294.91 154.844L294.918 154.992L294.92 155.029L294.921 155.038V155.041V155.042L294.961 155.784L295.695 155.759L314.405 155.132L315.166 155.106" stroke="#A7B4CC" stroke-width="2"/>
<path d="M293.809 177.479L294.577 177.576L313.157 179.936L313.88 180.028" stroke="#A7B4CC" stroke-width="2"/>
<path d="M293.236 181.559C293.178 182.028 293.081 182.685 292.916 183.482L292.914 183.489C292.596 185.113 292.178 187.277 291.76 189.443L291.757 189.46M290.321 195.366L290.318 195.379C290.204 195.893 290.08 196.289 289.964 196.658C289.899 196.864 289.836 197.062 289.78 197.268C289.711 197.497 289.657 197.675 289.62 197.797L289.578 197.938L289.567 197.974L289.564 197.983L289.563 197.985L289.339 198.723L290.071 198.939L308.051 204.235L308.765 204.445" stroke="#A7B4CC" stroke-width="2"/>
<path d="M282.321 219.331L299.261 227.401L299.938 227.723" stroke="#A7B4CC" stroke-width="2"/>
<path d="M270.936 237.853L271.56 238.28L287.07 248.902L287.69 249.327" stroke="#A7B4CC" stroke-width="2"/>
<path d="M257.463 254.761L258.007 255.277L271.677 268.239L272.232 268.765M272.744 268.195L272.746 268.193L272.753 268.186M285.459 252.587L285.46 252.586" stroke="#A7B4CC" stroke-width="2"/>
<path d="M241.558 269.326L242.008 269.912L247.748 277.4L253.488 284.889L253.956 285.499L254.55 285.015" stroke="#A7B4CC" stroke-width="2"/>
<path d="M223.549 281.142L223.913 281.812L232.933 298.429L233.29 299.087" stroke="#A7B4CC" stroke-width="2"/>
<path d="M203.93 289.951L204.184 290.666L210.534 308.498L210.788 309.212" stroke="#A7B4CC" stroke-width="2"/>
<path d="M200.848 291.066H200.847M183.203 295.616L183.344 296.353L186.884 314.975L187.027 315.731" stroke="#A7B4CC" stroke-width="1.5"/>
<path d="M119.463 292.271L119.25 293.011L114.02 311.218L113.812 311.941M134.5 316.5L137.791 297.198L138 296" stroke="#A7B4CC" stroke-width="2"/>
<path d="M99.4518 284.473L99.1308 285.163L91.1612 302.327L90.8428 303.012M91.5193 303.337L91.5223 303.338" stroke="#A7B4CC" stroke-width="2"/>
<path d="M80.8202 273.625L80.3986 274.256L69.9086 289.962L69.4893 290.589" stroke="#A7B4CC" stroke-width="2"/>
<path d="M64.1455 259.988L63.6326 260.543L50.8326 274.386L50.3135 274.947" stroke="#A7B4CC" stroke-width="2"/>
<path d="M50.2025 244.453L49.74 243.875L49.1603 244.331L34.3703 255.956L33.7676 256.43" stroke="#A7B4CC" stroke-width="2"/>
<path d="M38.0999 225.64L37.4386 226.008L21.0286 235.142L20.3784 235.504" stroke="#A7B4CC" stroke-width="2"/>
<path d="M29.3823 205.772L28.6759 206.031L11.0659 212.461L10.3613 212.718L10.6144 213.432M10.6144 213.432L11.3203 213.175M10.6144 213.432L10.6147 213.433L10.6156 213.435L10.6192 213.445L10.6336 213.486L10.6898 213.645" stroke="#A7B4CC" stroke-width="2"/>
<path d="M23.9374 185.534L23.9355 185.524M23.7867 184.785L23.0582 184.927L4.66819 188.512L3.92871 188.656L4.07406 189.404L4.07425 189.405L4.07478 189.408M9.0418 208.99L9.042 208.991" stroke="#A7B4CC" stroke-width="2"/>
<path d="M21.5197 163.954L21.5192 163.944M21.4787 163.198L20.7453 163.224L2.03531 163.851L1.26807 163.877L1.31134 164.653L1.31154 164.656L1.31213 164.668L1.31449 164.71L1.32362 164.877" stroke="#A7B4CC" stroke-width="2"/>
<path d="M22.5194 142.278L22.5206 142.27L22.5209 142.268L22.6412 141.495L21.8733 141.396L3.2933 139.037L2.57005 138.946L2.45877 139.675M2.45877 139.675L3.19998 139.791M2.45877 139.675L2.45869 139.676L2.45854 139.677L2.45803 139.68L2.45621 139.692L2.44953 139.738C2.44378 139.777 2.4355 139.835 2.42515 139.91C2.40446 140.06 2.37548 140.278 2.34181 140.557C2.2745 141.112 2.18837 141.905 2.11241 142.859C2.06316 143.477 1.99454 144.181 1.92062 144.939C1.7758 146.426 1.61062 148.12 1.53088 149.789L1.5306 149.796C1.49504 150.692 1.4541 151.594 1.41436 152.471C1.34324 154.039 1.27594 155.522 1.25017 156.735L1.25 156.745V156.753C1.25 157.701 1.2525 158.489 1.255 159.04C1.25625 159.317 1.2575 159.533 1.25844 159.68L1.25957 159.849L1.25989 159.893L1.25997 159.904L1.26 159.907V159.908M1.26 159.908L2.00998 159.902M1.26 159.908L1.26601 160.663L2.01238 160.661M21.48 159.85V159.847" stroke="#A7B4CC" stroke-width="2"/>
<path d="M27.0907 120.24L26.3594 120.024L8.37939 114.728" stroke="#A7B4CC" stroke-width="2"/>
<path d="M34.3827 100.845L34.4457 100.711L34.4619 100.677L34.466 100.668L34.467 100.666L34.4672 100.665M34.4672 100.665L33.7898 100.339M34.4672 100.665L34.7901 99.9764L34.1091 99.652L25.6391 95.6167L17.1691 91.5814L16.492 91.2588L16.1719 91.9437M16.1719 91.9437L16.8498 92.2686M16.1719 91.9437L16.1703 91.9471L16.1657 91.9569L16.1475 91.9959L16.0766 92.1477M8.80054 110.776L8.79688 110.79" stroke="#A7B4CC" stroke-width="2"/>
<path d="M34.5 100L36.201 96.9615L36.2025 96.9586L36.2069 96.9501L36.2247 96.9166L36.2941 96.7858C36.3549 96.671 36.4442 96.503 36.5578 96.2893C36.7851 95.8619 37.1098 95.2524 37.4995 94.5239C37.7116 94.1272 37.9442 93.6867 38.1905 93.22C38.3956 92.8315 38.6101 92.425 38.8303 92.011L38.8317 92.0082C38.9169 91.8466 39.0074 91.6772 39.1003 91.5032C39.256 91.2117 39.4184 90.9076 39.5736 90.6066C39.6776 90.4334 39.7799 90.2619 39.8819 90.0907C40.0557 89.7992 40.2287 89.509 40.4083 89.2143L40.4088 89.2134C40.8357 88.5105 41.2485 87.8137 41.6444 87.1452C42.3331 85.9826 42.9707 84.9061 43.543 84.0335C44.0019 83.3466 44.386 82.7733 44.6554 82.3717L44.9688 81.9047L45.0515 81.7817L45.0727 81.7502L45.078 81.7423L45.0794 81.7403M45.0794 81.7403L44.46 81.312M45.0794 81.7403L45.5035 81.1099L44.8802 80.6829L29.3701 70.0605" stroke="#A7B4CC" stroke-width="2"/>
<path d="M45.5 80.9997L46.9154 78.9792L47.3578 78.3887M47.3578 78.3887L47 77.9997M47.3578 78.3887L47.3598 78.3861L47.3656 78.3784L47.3883 78.348L47.4769 78.2295C47.5544 78.1258 47.668 77.9736 47.8126 77.7797C48.1016 77.3921 48.5144 76.8374 49.0096 76.1688C49.1726 75.9502 49.3428 75.7206 49.5196 75.4819C50.4275 74.2565 51.5098 72.7956 52.6968 71.41L52.7017 71.4043C53.1635 70.8542 53.6102 70.3079 54.0408 69.7812C54.9661 68.6493 55.8172 67.6082 56.5852 66.817L56.5942 66.8077L56.603 66.798C57.1568 66.1868 57.6207 65.679 57.9461 65.3243C58.1087 65.147 58.2368 65.0079 58.324 64.9132L58.4236 64.8053L58.449 64.7778L58.4554 64.7709L58.457 64.7692L58.9707 64.2143L58.4229 63.6949L44.7529 50.7334" stroke="#A7B4CC" stroke-width="2"/>
<path d="M73.84 49.5261L74.3127 50.1158M74.3127 50.1158L74.8824 49.6474L74.4324 49.0605L62.9524 34.0839M74.3127 50.1158L74.3101 50.1179L74.3027 50.124L74.2734 50.1481L74.1593 50.2416C74.0595 50.3237 73.913 50.4438 73.7266 50.5965C73.3539 50.9016 72.8214 51.337 72.1814 51.8585C71.5418 52.3848 70.7937 52.9909 69.9987 53.6348C69.5375 54.0362 69.0743 54.4547 68.5991 54.8841C68.275 55.1769 67.9453 55.4749 67.6069 55.7758C66.7877 56.5143 65.9672 57.2539 65.1964 57.9432C64.687 58.3988 64.2415 58.8493 63.8137 59.2819C63.6079 59.4901 63.4061 59.6941 63.2034 59.8925C62.6197 60.4735 62.1332 60.9585 61.7926 61.2983L61.3968 61.6935L61.2925 61.7976L59 64.0004L61.2591 61.8311L61.2568 61.8333M61.8872 33.96L61.8788 33.9668" stroke="#A7B4CC" stroke-width="2"/>
<path d="M83.5072 20.5635L92.5272 37.1805L92.8969 37.8616L92.2153 38.2205L92.2131 38.2216L92.2046 38.2262L92.1708 38.244L92.0394 38.3134C91.9276 38.3724 91.7659 38.458 91.5636 38.5652C91.2512 38.7505 90.8362 38.9992 90.3426 39.2951C90.1927 39.3849 90.0355 39.4791 89.8718 39.5772L89.865 39.5812C89.4593 39.8184 89.0227 40.0792 88.5549 40.3585C88.2037 40.5683 87.8349 40.7885 87.4483 41.0172C87.4075 41.0413 87.3667 41.0655 87.3258 41.0897C86.4679 41.597 85.5882 42.1173 84.7554 42.6982L84.7452 42.7052C84.0819 43.1517 83.4219 43.5852 82.7876 44.0019C81.6502 44.7491 80.595 45.4422 79.7501 46.0597C79.0908 46.5452 78.5389 46.9524 78.1518 47.2382L77.7017 47.5705L77.5895 47.6534L77.001 48.2508L75.5 49.4997" stroke="#A7B4CC" stroke-width="2"/>
<path d="M94.939 36.1594L94.949 36.1696M95.8272 36.2909L95.8291 36.2898L95.8366 36.2857L95.8679 36.2687C95.8959 36.2535 95.9381 36.2308 95.9936 36.2011C96.1048 36.1417 96.2695 36.0546 96.4816 35.9448L96.4909 35.9399L96.5002 35.9347C96.9084 35.7083 97.4981 35.3952 98.222 35.0727L98.2286 35.0698L98.2351 35.0666C98.692 34.8525 99.191 34.6153 99.721 34.3637C100.931 33.7886 102.3 33.1382 103.684 32.5141C105.704 31.6781 107.722 30.8426 109.237 30.2167C110.005 29.9405 110.645 29.7097 111.094 29.5473L111.618 29.3574L111.756 29.3073L111.791 29.2944L111.8 29.2911L111.803 29.2902L111.55 28.5752L111.804 29.2899L112.51 29.0329L112.255 28.3176L105.905 10.4854M104.946 10.0283L104.943 10.0294" stroke="#A7B4CC" stroke-width="2"/>
<path d="M114.5 27.5L114.63 28.2034L115.599 27.9045M115.599 27.9045L115.38 27.178M115.599 27.9045L115.602 27.9036L115.611 27.9007L115.647 27.8897L115.787 27.8466C115.909 27.8089 116.089 27.7536 116.318 27.6834C116.776 27.5433 117.429 27.3438 118.212 27.1064C118.652 26.9769 119.12 26.8317 119.612 26.6793C120.936 26.2695 122.427 25.8075 123.964 25.4584L123.975 25.4559C124.7 25.2801 125.409 25.0966 126.09 24.9202C127.463 24.5648 128.726 24.238 129.793 24.059L129.804 24.057L129.816 24.0547C130.622 23.8925 131.295 23.7557 131.767 23.6594C132.003 23.6112 132.188 23.5732 132.315 23.5472L132.46 23.5174L132.497 23.5097L132.507 23.5078L132.509 23.5073M132.509 23.5073L132.36 22.763M132.509 23.5073L133.237 23.3572L133.097 22.6194L129.557 3.99735L129.414 3.24854M128.674 3.39591L128.672 3.39645L128.661 3.39858" stroke="#A7B4CC" stroke-width="1.5"/>
<path d="M176 21.5001L176.5 11.0001L177 2.53809M179.26 22.6535L179.261 22.6536L179.263 22.654L179.273 22.6555L179.31 22.661L179.456 22.6828C179.584 22.7018 179.772 22.7297 180.012 22.7651L180.019 22.7663L180.027 22.7673C180.49 22.8259 181.14 22.9239 181.926 23.0911L181.934 23.0927C183.541 23.4162 185.685 23.8403 187.829 24.2644C188.919 24.5339 190.027 24.8111 191.06 25.0697C192.015 25.3088 192.907 25.5319 193.663 25.7185L193.667 25.7195C194.188 25.8449 194.61 25.9782 194.989 26.0979C195.181 26.1584 195.362 26.2155 195.539 26.2664C195.765 26.336 195.942 26.3908 196.063 26.4284L196.202 26.4715L196.238 26.4825L196.247 26.4853L196.249 26.486L196.25 26.4862L196.978 26.713L197.19 25.9725L202.42 7.7656" stroke="#A7B4CC" stroke-width="2"/>
<path d="M200.162 27.6694L200.169 27.6719L200.2 27.6805C200.229 27.6884 200.273 27.701 200.331 27.7181C200.445 27.752 200.614 27.8042 200.826 27.8758C200.881 27.8954 200.938 27.9161 200.998 27.9377C201.434 28.0947 202.013 28.3029 202.684 28.5499L202.687 28.5509C203.468 28.835 204.37 29.1597 205.342 29.5047C205.452 29.5436 205.562 29.5825 205.672 29.6215C206.55 29.9315 207.437 30.2449 208.292 30.6348L208.302 30.6394L208.312 30.6435C209.209 31.0214 210.11 31.4019 210.968 31.7641C212.03 32.2127 213.025 32.6331 213.865 32.9856C214.602 33.3415 215.216 33.6372 215.647 33.8445L216.15 34.0869L216.283 34.1507L216.317 34.1671L216.326 34.1711L216.328 34.1722M216.328 34.1722L216.65 33.4865M216.328 34.1722L217.009 34.4995L217.329 33.8096L225.299 16.6457L225.617 15.9602L224.941 15.6361M224.941 15.6361L224.62 16.3226M224.941 15.6361L224.94 15.6357L224.938 15.6345L224.928 15.6299L224.89 15.6114L224.74 15.5396L224.17 15.2665L222.131 14.2894L222.12 14.2839L222.108 14.2788C220.786 13.6996 219.108 12.9999 217.359 12.2711C216.838 12.0538 216.31 11.8339 215.784 11.6138C214.775 11.1662 213.736 10.7955 212.774 10.4525C212.621 10.3979 212.47 10.344 212.321 10.2905" stroke="#A7B4CC" stroke-width="2"/>
<path d="M295 159C295 235.226 233.877 297 158.5 297C83.1233 297 22 235.226 22 159C22 82.7744 83.1233 21 158.5 21C233.877 21 295 82.7744 295 159Z" stroke="#A7B4CC" stroke-width="2"/>
<path d="M315 160C315 247.279 244.915 318 158.5 318C72.0852 318 2 247.279 2 160C2 72.7212 72.0852 2 158.5 2C244.915 2 315 72.7212 315 160Z" stroke="#A7B4CC" stroke-width="4"/>
<path d="M130 4L152.5 1L177 2.5L176.5 12.5L175.5 22L154.5 21L136.5 23L133 22.5L131 12.5L130 4Z" fill="#A7B4CC"/>
<path d="M134.5 317L136.5 305.5L138 296L161.5 297.5L183 295L185 305.5L187 316L161.5 319L134.5 317Z" fill="#A7B4CC"/>
</svg>
